<svg width="32" height="32" viewBox="0 0 32 32" fill="none" xmlns="http://www.w3.org/2000/svg">
<path fill-rule="evenodd" clip-rule="evenodd" d="M12.173 6.76121C13.3863 6.25866 14.6866 6 15.9999 6C17.3131 6 18.6134 6.25866 19.8267 6.76121C21.0399 7.26375 22.1423 8.00035 23.0709 8.92893L25.6065 11.4645H22.021C21.4687 11.4645 21.021 11.9122 21.021 12.4645C21.021 13.0168 21.4687 13.4645 22.021 13.4645H28.021C28.5733 13.4645 29.021 13.0168 29.021 12.4645V6.46448C29.021 5.91219 28.5733 5.46448 28.021 5.46448C27.4687 5.46448 27.021 5.91219 27.021 6.46448V10.0506L24.4851 7.51472C23.3708 6.40042 22.048 5.5165 20.5921 4.91345C19.1362 4.31039 17.5757 4 15.9999 4C14.424 4 12.8636 4.31039 11.4077 4.91345C9.95175 5.5165 8.62888 6.40042 7.51457 7.51472C7.12405 7.90524 7.12405 8.53841 7.51457 8.92893C7.9051 9.31946 8.53826 9.31946 8.92879 8.92893C9.85737 8.00035 10.9598 7.26375 12.173 6.76121ZM2.979 19.5355C2.979 18.9832 3.42672 18.5355 3.979 18.5355H3.97949H9.979C10.5313 18.5355 10.979 18.9832 10.979 19.5355C10.979 20.0878 10.5313 20.5355 9.979 20.5355H6.3937L8.92924 23.0711C9.85783 23.9996 10.9602 24.7362 12.1735 25.2388C13.3867 25.7413 14.6871 26 16.0003 26C17.3135 26 18.6139 25.7413 19.8271 25.2388C21.0404 24.7362 22.1428 23.9996 23.0714 23.0711C23.4619 22.6805 24.0951 22.6805 24.4856 23.0711C24.8761 23.4616 24.8761 24.0947 24.4856 24.4853C23.3713 25.5996 22.0484 26.4835 20.5925 27.0866C19.1366 27.6896 17.5762 28 16.0003 28C14.4244 28 12.864 27.6896 11.4081 27.0866C9.9522 26.4835 8.62933 25.5996 7.51503 24.4853L4.979 21.9492V25.5355C4.979 26.0878 4.53129 26.5355 3.979 26.5355C3.42672 26.5355 2.979 26.0878 2.979 25.5355V19.5355Z" fill="#14C072"/>
</svg>
