<svg width="32" height="32" viewBox="0 0 32 32" fill="none" xmlns="http://www.w3.org/2000/svg">
<path d="M16 19C23.1797 19 29 16.3137 29 13C29 9.68629 23.1797 7 16 7C8.8203 7 3 9.68629 3 13C3 16.3137 8.8203 19 16 19Z" fill="#D0F2E3"/>
<path fill-rule="evenodd" clip-rule="evenodd" d="M7.22667 9.66532C4.94804 10.717 4 11.9683 4 13C4 14.0317 4.94804 15.283 7.22667 16.3347C9.42035 17.3472 12.5212 18 16 18C19.4788 18 22.5796 17.3472 24.7733 16.3347C27.052 15.283 28 14.0317 28 13C28 11.9683 27.052 10.717 24.7733 9.66532C22.5796 8.65285 19.4788 8 16 8C12.5212 8 9.42035 8.65285 7.22667 9.66532ZM28 16.6859C27.3129 17.2541 26.4928 17.7438 25.6114 18.1506C25.4131 18.2422 25.2092 18.3308 25 18.4164V22.2568L25.0528 22.2306C27.195 21.1595 28 19.9182 28 19V16.6859ZM17 19.9831C19.1669 19.9096 21.208 19.5988 23 19.0973V23.0449C21.3515 23.5591 19.3344 23.906 17 23.9836V19.9831ZM16 26C19.267 26 22.0915 25.5145 24.329 24.708L24.3505 24.7002C24.922 24.4934 25.4551 24.2655 25.9472 24.0194C28.305 22.8405 30 21.0818 30 19V13C30 10.718 28.0379 8.9693 25.6114 7.8494C23.1001 6.6903 19.7009 6 16 6C12.2991 6 8.89994 6.6903 6.38855 7.8494C3.96211 8.9693 2 10.718 2 13V19C2 21.0818 3.69499 22.8405 6.05279 24.0194C6.54582 24.2659 7.07988 24.4942 7.65252 24.7013C7.65764 24.7032 7.66279 24.7051 7.66795 24.7069C9.9059 25.5141 12.7315 26 16 26ZM9 23.0449C10.6485 23.5591 12.6656 23.906 15 23.9836V19.9831C12.8331 19.9096 10.792 19.5988 9 19.0973V23.0449ZM7 18.4164C6.79084 18.3308 6.58693 18.2422 6.38855 18.1506C5.50718 17.7438 4.68706 17.2541 4 16.6859V19C4 19.9182 4.80501 21.1595 6.94721 22.2306C6.96474 22.2393 6.98233 22.2481 7 22.2568V18.4164Z" fill="#14C072"/>
</svg>
