<svg width="32" height="32" viewBox="0 0 32 32" fill="none" xmlns="http://www.w3.org/2000/svg">
<path d="M9.83821 20.8764C8.64914 19.9477 7.68605 18.7616 7.02133 17.4071C6.35661 16.0527 6.00755 14.5652 6.0004 13.0564C5.97044 7.63616 10.3402 3.1304 15.7591 3.00285C17.8589 2.95229 19.9214 3.56419 21.6539 4.75174C23.3864 5.9393 24.701 7.64221 25.4112 9.61894C26.1214 11.5957 26.1912 13.7458 25.6107 15.7645C25.0301 17.7831 23.8287 19.5676 22.1768 20.865C21.813 21.1469 21.518 21.5078 21.3142 21.9205C21.1103 22.3331 21.003 22.7868 21.0003 23.247L21.0003 24C21.0003 24.2652 20.8949 24.5196 20.7074 24.7071C20.5198 24.8947 20.2655 25 20.0003 25H12.0002C11.735 25 11.4807 24.8947 11.2931 24.7071C11.1056 24.5196 11.0002 24.2652 11.0002 24L11.0002 23.2461C10.9991 22.7889 10.8939 22.3378 10.6925 21.9273C10.4912 21.5167 10.199 21.1573 9.83821 20.8764V20.8764Z" fill="#D0F2E3"/>
<path fill-rule="evenodd" clip-rule="evenodd" d="M21.0883 5.5766C19.529 4.5078 17.6728 3.95709 15.7829 4.0026C15.552 4.00803 15.3232 4.02232 15.0968 4.04513C10.5459 4.50371 6.97447 8.40608 7.00014 13.051C7.00658 14.4086 7.32067 15.7478 7.9188 16.9666C8.4611 18.0716 9.22409 19.0521 10.1592 19.8483C10.2551 19.93 10.3529 20.0097 10.4523 20.0875C10.9329 20.4616 11.322 20.9402 11.5901 21.487C11.8583 22.0339 11.9985 22.6346 12 23.2437L12 23.2462L12 24L20 24L20 23.2411C20.0037 22.6293 20.1464 22.0262 20.4173 21.4777C20.6878 20.9301 21.079 20.4511 21.5614 20.0767C23.0468 18.9092 24.1272 17.3038 24.6494 15.4881C25.1719 13.6713 25.1091 11.7362 24.4699 9.9571C23.8307 8.17804 22.6475 6.64541 21.0883 5.5766ZM9.83803 20.8764L9.22242 21.6646C7.91424 20.6428 6.85467 19.3379 6.12337 17.8477C5.39212 16.3577 5.0081 14.7214 5.00017 13.0617C4.9674 7.09735 9.77027 2.14385 15.7348 2.00318C18.0444 1.94768 20.3134 2.62074 22.219 3.92695C24.1248 5.23325 25.5708 7.10645 26.3521 9.28085C27.1333 11.4552 27.2101 13.8204 26.5715 16.0409C25.9328 18.2614 24.6113 20.2244 22.7942 21.6515L22.789 21.6556C22.545 21.8446 22.3472 22.0866 22.2105 22.3634C22.0742 22.6393 22.0023 22.9424 22 23.2501L22 24.0001C22 24.5305 21.7893 25.0392 21.4142 25.4143C21.0391 25.7893 20.5304 26 20 26H12C11.4696 26 10.9609 25.7893 10.5858 25.4143C10.2107 25.0392 9.99999 24.5305 9.99998 24.0001L9.99997 23.2487L9.99997 23.2476C9.99905 22.9425 9.92877 22.6416 9.79442 22.3676C9.65992 22.0933 9.46474 21.8532 9.22369 21.6656L9.83803 20.8764ZM10 29C10 28.4477 10.4477 28 11 28H21C21.5523 28 22 28.4477 22 29C22 29.5523 21.5523 30 21 30H11C10.4477 30 10 29.5523 10 29ZM17.1829 6.11208C16.6384 6.01953 16.122 6.38589 16.0294 6.93036C15.9369 7.47484 16.3032 7.99125 16.8477 8.0838C17.8667 8.257 18.8067 8.74231 19.538 9.47271C20.2693 10.2031 20.7558 11.1425 20.9302 12.1613C21.0235 12.7056 21.5403 13.0714 22.0847 12.9781C22.629 12.8849 22.9948 12.3681 22.9015 11.8237C22.6572 10.3967 21.9757 9.08074 20.9514 8.05762C19.927 7.0345 18.6102 6.35469 17.1829 6.11208Z" fill="#14C072"/>
</svg>
